# xmcd CD database file
#
# Track frame offsets:
#	150
#	13425
#	25740
#	38265
#	49412
#	60815
#	72227
#	84102
#	98760
#	108147
#	119920
#	132860
#	147025
#	156750
#	169180
#	180040
#
# Disc length: 2583 seconds
#
# Revision: 2
# Processed by: cddbd v1.5.1PL0 Copyright (c) Steve Scherf et al.
# Submitted via: CDex 1.51
#
DISCID=c10a1510
DTITLE=Roy Orbison - The OOriginal Roy Orbison - Vol. 3
DYEAR=1900
DGENRE=
TTITLE0=Pretty Woman
TTITLE1=Dance
TTITLE2=You're My Girl
TTITLE3=Goodnight
TTITLE4=Night Life
TTITLE5=Let The Good Time Roll
TTITLE6=Sentimental
TTITLE7=Yo Te Amo Maria
TTITLE8=Wedding Day
TTITLE9=Sleepy Hollow
TTITLE10=22 Days
TTITLE11=I'd Be A Legend
TTITLE12=Can't Wait
TTITLE13=Crying
TTITLE14=Mean Woman Blues
TTITLE15=Indian Wedding
EXTD=
EXTT0=
EXTT1=
EXTT2=
EXTT3=
EXTT4=
EXTT5=
EXTT6=
EXTT7=
EXTT8=
EXTT9=
EXTT10=
EXTT11=
EXTT12=
EXTT13=
EXTT14=
EXTT15=
PLAYORDER=
